<?xml version="1.0" encoding="utf-8"?>
<!-- Generator: Adobe Illustrator 14.0.0, SVG Export Plug-In . SVG Version: 6.00 Build 43363)  -->
<!DOCTYPE svg PUBLIC "-//W3C//DTD SVG 1.1//EN" "http://www.w3.org/Graphics/SVG/1.1/DTD/svg11.dtd">
<svg version="1.1" id="Capa_1" xmlns="http://www.w3.org/2000/svg" xmlns:xlink="http://www.w3.org/1999/xlink" x="0px" y="0px"
	 width="33.953px" height="33.953px" viewBox="0 0 33.953 33.953" enable-background="new 0 0 33.953 33.953" xml:space="preserve">
<g>
	<path fill="#FFFC3F" d="M28.998,6.209c-0.562,1.875-2.147,6.482-2.732,7.556c-0.59,1.07-1.396,0.803-1.396-0.054
		c0.002-0.858,0.836-7.667,1.07-9.859c0.24-2.194-1.794-3.054-2.143-1.771c-0.35,1.287-1.527,9.59-1.715,10.771
		c-0.188,1.184-1.314,0.858-1.396-0.052c-0.079-0.911-0.414-9.887-0.479-11.471c-0.067-1.582-2.332-1.956-2.414,0.001
		c-0.082,1.956-0.239,10.769-0.269,12.058c-0.03,1.289-1.501,1.179-1.903,0.01c-0.221-0.653-2.586-6.917-3.186-8.53
		c-0.608-1.61-2.71-1.045-2.411,0.429c0.294,1.474,2.557,10.763,3.214,13.128c0.654,2.367-0.298,3.832-2.09,3.162
		c-1.794-0.67-3.196-1.605-4.716-2.52c-1.521-0.912-4.345-0.456-3.483,0.695c0.857,1.152,1.835,1.632,2.253,1.876
		c0.415,0.245,0.478,1.258,1.03,1.659c0.552,0.397,1.887,0.967,2.394,1.607c0.514,0.645,2.172,2.963,2.789,4.073
		c0.807,1.455,2.863,1.44,4.401,2.458c1.209,0.803,1.631,1.688,2.189,2.15c1.8,1.49,2.307-2.088,4.402-2.315s5.18,0.521,4.653-1.114
		c-0.295-0.914,0.231-3.246,0.505-5.652c0.277-2.405,0.292-4.889,0.352-5.651c0.115-1.529,2.67-9.772,3.164-11.576
		C31.578,5.476,29.557,4.333,28.998,6.209z M13.063,23.973c0.104-1.205,1.448-2.07,3.001-1.937c1.551,0.137,2.725,1.223,2.618,2.428
		C17.609,23.6,12.956,25.179,13.063,23.973z M21.087,30.527c-2.832,0.5-5.552-1.486-5.856-3.219c-0.306-1.734,2.265-0.59,5.099-1.09
		c2.832-0.5,4.854-2.452,5.16-0.721C25.796,27.232,23.919,30.028,21.087,30.527z M21.232,24.016
		c-0.512-1.097,0.221-2.521,1.63-3.177c1.412-0.658,2.974-0.305,3.483,0.793C26.856,22.728,21.944,22.835,21.232,24.016z"/>
</g>
</svg>
