<?xml version="1.0" encoding="iso-8859-1"?>
<!-- Generator: Adobe Illustrator 16.0.0, SVG Export Plug-In . SVG Version: 6.00 Build 0)  -->
<!DOCTYPE svg PUBLIC "-//W3C//DTD SVG 1.1//EN" "http://www.w3.org/Graphics/SVG/1.1/DTD/svg11.dtd">
<svg version="1.1" id="Capa_1" xmlns="http://www.w3.org/2000/svg" xmlns:xlink="http://www.w3.org/1999/xlink" x="0px" y="0px"
	 width="188.787px" height="188.787px" viewBox="0 0 188.787 188.787" style="enable-background:new 0 0 188.787 188.787;"
	 xml:space="preserve">
<g>
	<g>
		<path d="M170.556,71.144c-15.179-13.13-33.764-22.996-54.071-24.793C80.398,43.157,19.543,55.521,2.088,91.668
			c-0.503,1.042-0.428,1.965-0.066,2.709c-1.325,0.565-2.342,1.961-1.929,3.65c2.303,9.417,13.651,20.804,21.365,26.148
			c21.638,14.996,48.598,19.296,74.492,18.688c21.877-0.513,40.986-9.591,59.96-19.483c7.353-3.834,31.104-13.143,28.57-24.75
			c0.634-0.128,1.273-0.376,1.878-0.854C195.816,90.308,174.9,74.901,170.556,71.144z M80.667,124.374
			c-14.576-15.713-14.318-60.595,10.5-65.01c0.714,0.779,1.723,1.342,3.042,1.455c23.199,1.999,28.009,28.341,23.046,47.134
			C113.3,122.927,93.93,138.671,80.667,124.374z M5.824,95.75c0.513-0.212,1.012-0.521,1.429-1.062
			c15.225-19.715,40.854-30.271,65.979-35.691c-15.125,16.362-11.407,59.416,4.395,74.5C50.361,131.342,19.019,120.184,5.824,95.75z
			 M180.148,95.462c-1.042,0.158-2.03,0.733-2.653,1.775c-5.732,9.579-19.873,14.92-29.386,19.888
			c-12.062,6.299-23.685,11.181-36.127,14.022c7.203-6.558,12.685-15.731,14.76-23.534c5.104-19.192-1.511-44.229-19.394-52.71
			c16.437,0.454,31.777,5.938,46.229,14.375c4.4,2.569,27.541,19.315,26.606,24.908C180.108,94.637,180.105,95.062,180.148,95.462z"
			/>
		<path d="M102.748,79.706c-2.134-2.265-4.757-3.375-7.347-3.486c-1.543-0.935-3.242-1.384-5.487-0.985
			c-3.141,0.558-5.012,4.109-5.928,6.801c-2.182,6.411-1.054,14.533,1.291,20.732c2.429,6.423,8.476,12.697,15.283,7.21
			c3.489-2.813,5.284-7.612,6.787-11.666C109.711,91.932,107.249,84.482,102.748,79.706z"/>
	</g>
</g>
<g>
</g>
<g>
</g>
<g>
</g>
<g>
</g>
<g>
</g>
<g>
</g>
<g>
</g>
<g>
</g>
<g>
</g>
<g>
</g>
<g>
</g>
<g>
</g>
<g>
</g>
<g>
</g>
<g>
</g>
</svg>
